<svg width="53" height="53" viewBox="0 0 53 53" fill="none" xmlns="http://www.w3.org/2000/svg">
<g clip-path="url(#clip0_9_28)">
<path d="M52.5352 5.54417C52.5352 5.11073 52.363 4.69506 52.0565 4.38857C51.75 4.08209 51.3343 3.90991 50.9009 3.90991H45.9981C45.6336 3.91001 45.2796 4.03199 44.9923 4.25645C44.7051 4.48092 44.5011 4.79497 44.4129 5.14868L43.0892 10.4469H5.14183C4.90186 10.4471 4.66489 10.5002 4.44775 10.6023C4.23061 10.7045 4.03862 10.8532 3.88544 11.0379C3.73225 11.2226 3.62161 11.4388 3.56139 11.671C3.50117 11.9033 3.49284 12.146 3.53699 12.3819L8.43975 38.5299C8.50985 38.9044 8.7086 39.2427 9.00164 39.4862C9.29467 39.7297 9.66358 39.8631 10.0446 39.8635H39.4611C39.8421 39.8631 40.211 39.7297 40.5041 39.4862C40.7971 39.2427 40.9959 38.9044 41.066 38.5299L45.9655 12.4309L47.2729 7.17842H50.9009C51.3343 7.17842 51.75 7.00624 52.0565 6.69976C52.363 6.39327 52.5352 5.9776 52.5352 5.54417ZM42.3963 13.7154L38.1047 36.595H11.401L7.10947 13.7154H42.3963ZM36.1926 39.8635C37.9264 39.8635 39.5891 40.5522 40.815 41.7781C42.0409 43.0041 42.7296 44.6668 42.7296 46.4005C42.7296 48.1342 42.0409 49.7969 40.815 51.0229C39.5891 52.2488 37.9264 52.9375 36.1926 52.9375C34.4589 52.9375 32.7962 52.2488 31.5703 51.0229C30.3443 49.7969 29.6556 48.1342 29.6556 46.4005C29.6556 44.6668 30.3443 43.0041 31.5703 41.7781C32.7962 40.5522 34.4589 39.8635 36.1926 39.8635ZM13.3131 39.8635C15.0468 39.8635 16.7095 40.5522 17.9355 41.7781C19.1614 43.0041 19.8501 44.6668 19.8501 46.4005C19.8501 48.1342 19.1614 49.7969 17.9355 51.0229C16.7095 52.2488 15.0468 52.9375 13.3131 52.9375C11.5794 52.9375 9.91665 52.2488 8.69073 51.0229C7.4648 49.7969 6.77608 48.1342 6.77608 46.4005C6.77608 44.6668 7.4648 43.0041 8.69073 41.7781C9.91665 40.5522 11.5794 39.8635 13.3131 39.8635ZM36.1926 43.132C35.3258 43.132 34.4944 43.4763 33.8814 44.0893C33.2685 44.7023 32.9241 45.5336 32.9241 46.4005C32.9241 47.2673 33.2685 48.0987 33.8814 48.7117C34.4944 49.3246 35.3258 49.669 36.1926 49.669C37.0595 49.669 37.8908 49.3246 38.5038 48.7117C39.1168 48.0987 39.4611 47.2673 39.4611 46.4005C39.4611 45.5336 39.1168 44.7023 38.5038 44.0893C37.8908 43.4763 37.0595 43.132 36.1926 43.132ZM13.3131 43.132C12.4462 43.132 11.6149 43.4763 11.0019 44.0893C10.3889 44.7023 10.0446 45.5336 10.0446 46.4005C10.0446 47.2673 10.3889 48.0987 11.0019 48.7117C11.6149 49.3246 12.4462 49.669 13.3131 49.669C14.18 49.669 15.0113 49.3246 15.6243 48.7117C16.2372 48.0987 16.5816 47.2673 16.5816 46.4005C16.5816 45.5336 16.2372 44.7023 15.6243 44.0893C15.0113 43.4763 14.18 43.132 13.3131 43.132Z" fill="#1E1E1E"/>
</g>
<defs>
<clipPath id="clip0_9_28">
<rect width="52.2961" height="52.2961" fill="white" transform="matrix(-1 0 0 1 52.5352 0.641418)"/>
</clipPath>
</defs>
</svg>
